<?xml version="1.0" encoding="UTF-8"?>
<svg xmlns="http://www.w3.org/2000/svg" xmlns:xlink="http://www.w3.org/1999/xlink" width="15pt" height="15pt" viewBox="0 0 15 15" version="1.1">
<g id="surface1">
<path style=" stroke:none;fill-rule:nonzero;fill:rgb(100%,92.156863%,60%);fill-opacity:1;" d="M 0.675781 5.84375 L 5.152344 5.84375 C 5.523438 5.84375 5.828125 5.539062 5.828125 5.167969 C 5.828125 4.792969 5.523438 4.488281 5.152344 4.488281 L 0.675781 4.488281 C 0.304688 4.488281 0 4.792969 0 5.167969 C 0 5.539062 0.304688 5.84375 0.675781 5.84375 Z M 0.675781 5.84375 "/>
<path style=" stroke:none;fill-rule:nonzero;fill:rgb(100%,87.058824%,33.333333%);fill-opacity:1;" d="M 5.152344 5.84375 C 5.523438 5.84375 5.828125 5.539062 5.828125 5.167969 C 5.828125 4.792969 5.523438 4.488281 5.152344 4.488281 L 2.449219 4.488281 C 2.707031 4.886719 2.992188 5.367188 3.230469 5.84375 Z M 5.152344 5.84375 "/>
<path style=" stroke:none;fill-rule:nonzero;fill:rgb(78.431373%,93.72549%,72.54902%);fill-opacity:1;" d="M 3.082031 8.1875 L 7.554688 8.1875 C 7.929688 8.1875 8.234375 7.882812 8.234375 7.507812 C 8.234375 7.136719 7.929688 6.832031 7.554688 6.832031 L 3.082031 6.832031 C 2.710938 6.832031 2.40625 7.136719 2.40625 7.507812 C 2.40625 7.882812 2.710938 8.1875 3.082031 8.1875 Z M 3.082031 8.1875 "/>
<path style=" stroke:none;fill-rule:nonzero;fill:rgb(69.803922%,89.803922%,61.176471%);fill-opacity:1;" d="M 8.234375 7.507812 C 8.234375 7.136719 7.929688 6.832031 7.554688 6.832031 L 3.636719 6.832031 C 3.714844 7.082031 3.757812 7.3125 3.75 7.507812 C 3.742188 7.742188 3.671875 7.964844 3.5625 8.1875 L 7.554688 8.1875 C 7.929688 8.1875 8.234375 7.882812 8.234375 7.507812 Z M 8.234375 7.507812 "/>
<path style=" stroke:none;fill-rule:nonzero;fill:rgb(100%,92.156863%,60%);fill-opacity:1;" d="M 1.988281 10.527344 L 6.464844 10.527344 C 6.835938 10.527344 7.140625 10.222656 7.140625 9.851562 C 7.140625 9.480469 6.835938 9.175781 6.464844 9.175781 L 1.988281 9.175781 C 1.617188 9.175781 1.3125 9.480469 1.3125 9.851562 C 1.3125 10.222656 1.617188 10.527344 1.988281 10.527344 Z M 1.988281 10.527344 "/>
<path style=" stroke:none;fill-rule:nonzero;fill:rgb(100%,87.058824%,33.333333%);fill-opacity:1;" d="M 7.140625 9.851562 C 7.140625 9.480469 6.835938 9.175781 6.464844 9.175781 L 2.90625 9.175781 C 2.613281 9.570312 2.304688 10.003906 2.078125 10.527344 L 6.464844 10.527344 C 6.835938 10.527344 7.140625 10.222656 7.140625 9.851562 Z M 7.140625 9.851562 "/>
<path style=" stroke:none;fill-rule:nonzero;fill:rgb(78.431373%,93.72549%,72.54902%);fill-opacity:1;" d="M 1.773438 7.507812 C 1.773438 7.882812 1.472656 8.1875 1.097656 8.1875 C 0.722656 8.1875 0.421875 7.882812 0.421875 7.507812 C 0.421875 7.136719 0.722656 6.832031 1.097656 6.832031 C 1.472656 6.832031 1.773438 7.136719 1.773438 7.507812 Z M 1.773438 7.507812 "/>
<path style=" stroke:none;fill-rule:nonzero;fill:rgb(55.686275%,84.313725%,90.980392%);fill-opacity:1;" d="M 13.234375 11.472656 L 6.363281 11.472656 C 5.386719 11.472656 4.597656 10.683594 4.597656 9.707031 L 4.597656 5.308594 C 4.597656 4.335938 5.386719 3.546875 6.363281 3.546875 L 13.234375 3.546875 C 14.210938 3.546875 15 4.335938 15 5.308594 L 15 9.707031 C 15 10.683594 14.210938 11.472656 13.234375 11.472656 Z M 13.234375 11.472656 "/>
<path style=" stroke:none;fill-rule:nonzero;fill:rgb(47.843137%,75.686275%,86.666667%);fill-opacity:1;" d="M 15 6.019531 L 15 5.308594 C 15 4.335938 14.210938 3.546875 13.234375 3.546875 L 6.363281 3.546875 C 5.386719 3.546875 4.597656 4.335938 4.597656 5.308594 L 4.597656 6.019531 C 5.476562 5.960938 7.199219 6.417969 8.722656 7.289062 C 8.699219 7.289062 10.898438 7.289062 10.875 7.289062 C 12.394531 6.417969 14.121094 5.960938 15 6.019531 Z M 15 6.019531 "/>
<path style=" stroke:none;fill-rule:nonzero;fill:rgb(67.058824%,92.156863%,95.686275%);fill-opacity:1;" d="M 10.695312 6.882812 L 14.675781 10.726562 C 14.355469 11.179688 13.828125 11.472656 13.234375 11.472656 L 6.363281 11.472656 C 5.765625 11.472656 5.242188 11.179688 4.921875 10.726562 L 8.902344 6.882812 C 9.402344 6.398438 10.195312 6.398438 10.695312 6.882812 Z M 10.695312 6.882812 "/>
<path style=" stroke:none;fill-rule:nonzero;fill:rgb(80%,97.254902%,100%);fill-opacity:1;" d="M 10.695312 8.136719 L 14.675781 4.289062 C 14.355469 3.839844 13.828125 3.546875 13.234375 3.546875 L 6.363281 3.546875 C 5.765625 3.546875 5.242188 3.839844 4.921875 4.289062 L 8.902344 8.136719 C 9.402344 8.617188 10.195312 8.617188 10.695312 8.136719 Z M 10.695312 8.136719 "/>
</g>
</svg>
